<svg viewBox="0 0 100 100" xmlns="http://www.w3.org/2000/svg">
<path id="speaker" d="M50,0 C16.6666667,8.3641475 0,25.0308142 0,50 C7.64460838e-16,74.9691858 16.6666667,91.6358525 50,100 L50,0 Z" fill="#fff"></path>
<path id="volume1" d="M75,30.000472 C61.6666667,33.4750225 55,40.1419252 55,50.0011798 C55,59.8604345 61.6666667,66.5273372 75,70.0018877 L75,30.000472 Z" fill="#fff" transform="translate(65.000000, 50.001180) scale(-1, 1) translate(-65.000000, -50.001180) "></path>
<path id="volume2" d="M100,4.48567162 C70.2736785,12.1344176 55.4105177,27.3062537 55.4105177,50.0011798 C55.4105177,72.696106 70.2736785,87.5506799 100,94.5649016 C100,101.344284 100,95.1120979 100,75.868342 C65.6920325,69.8218046 65.6920325,30.4945585 100,23.848318 C100,17.2085674 100,10.754352 100,4.48567162 Z" fill="#fff" transform="translate(77.705259, 50.849878) scale(-1, 1) translate(-77.705259, -50.849878) "></path>
<path id="muted" d="M7.34538373,7.1725215 L92.6787457,92.2302226" stroke="#fff" stroke-width="10" stroke-linecap="square"></path>
</svg>